<svg width="966" height="371" viewBox="0 0 966 371" fill="none" xmlns="http://www.w3.org/2000/svg">
<path d="M262.707 0.709351V370.397H183.742L79.1328 140.358V370.397H0.421875V0.709351H79.3867L184.25 232.018V0.709351H262.707ZM402.102 0.709351V370.397H321.613V0.709351H402.102ZM541.75 0.709351V370.397H461.008V0.709351H541.75ZM725.07 0.709351L606.75 186.315L534.133 277.721L518.898 199.518L564.348 119.284L626.555 0.709351H725.07ZM629.855 370.397L555.969 202.311L617.16 152.545L725.07 370.397H629.855ZM965.266 305.143V370.397H804.035V305.143H965.266ZM830.695 0.709351V370.397H749.953V0.709351H830.695ZM943.938 148.991V211.959H804.035V148.991H943.938ZM965.266 0.709351V66.2172H804.035V0.709351H965.266Z" fill="#15367E"/>
</svg>
